<svg xmlns="http://www.w3.org/2000/svg" xml:space="preserve" width="128" height="128" viewBox="0 0 24 24"><path d="m23.707 22.293-2.54-2.54A4.969 4.969 0 0 0 22 17c0-2.757-2.243-5-5-5s-5 2.243-5 5 2.243 5 5 5a4.969 4.969 0 0 0 2.753-.833l2.54 2.54a.999.999 0 1 0 1.414-1.414zM17 20c-1.654 0-3-1.346-3-3s1.346-3 3-3 3 1.346 3 3-1.346 3-3 3z"/><path d="M21 0h-7c-1.09 0-2.15.46-2.9 1.25L.82 11.94C.29 12.5 0 13.23 0 14c0 .8.31 1.56.88 2.12l7 7c.56.57 1.32.88 2.12.88.77 0 1.5-.29 2.07-.83l.66-.63c-.53-.4-1-.89-1.39-1.43l-.65.62c-.38.36-1.03.35-1.4-.02l-7-7A.99.99 0 0 1 2 14c0-.26.1-.5.27-.68L12.55 2.63c.38-.41.89-.63 1.45-.63h7c.55 0 1 .45 1 1v7c0 .56-.22 1.07-.63 1.45v.01l-.05.04c.53.41 1 .9 1.38 1.45l.05-.05c.79-.75 1.25-1.81 1.25-2.9V3c0-1.65-1.35-3-3-3z"/><path d="M19 7c-1.103 0-2-.897-2-2s.897-2 2-2 2 .897 2 2-.897 2-2 2z"/></svg>