<svg xmlns="http://www.w3.org/2000/svg" width="128" height="128" viewBox="0 0 24 24"><g fill-rule="evenodd"><path d="M12 2C6.477 2 2 6.477 2 12s4.477 10 10 10 10-4.477 10-10S17.523 2 12 2ZM1 12C1 5.925 5.925 1 12 1s11 4.925 11 11-4.925 11-11 11S1 18.075 1 12Z"/><path d="M9.278 4.772C8.496 6.597 8 9.152 8 12s.496 5.403 1.278 7.228c.39.913.844 1.62 1.322 2.091.475.47.948.681 1.4.681.452 0 .925-.212 1.4-.681.478-.471.931-1.178 1.322-2.091C15.504 17.403 16 14.848 16 12s-.496-5.403-1.278-7.228c-.39-.913-.844-1.62-1.322-2.091C12.925 2.211 12.452 2 12 2c-.452 0-.925.212-1.4.681-.478.471-.931 1.178-1.322 2.091Zm.62-2.803C10.497 1.376 11.21 1 12 1c.79 0 1.502.376 2.103.97.599.59 1.116 1.421 1.539 2.408C16.488 6.354 17 9.05 17 12c0 2.95-.512 5.646-1.358 7.622-.423.987-.94 1.818-1.54 2.409-.6.593-1.312.969-2.102.969-.79 0-1.502-.376-2.103-.97-.599-.59-1.115-1.421-1.539-2.408C7.512 17.646 7 14.95 7 12c0-2.95.512-5.646 1.358-7.622.424-.987.94-1.817 1.54-2.409Z"/><path d="M1 12a.5.5 0 0 1 .5-.5h21a.5.5 0 0 1 0 1h-21A.5.5 0 0 1 1 12Z"/></g></svg>