<svg xmlns="http://www.w3.org/2000/svg" id="Layer_1" width="128" height="128" data-name="Layer 1" viewBox="0 0 21.5 21.5"><defs><style>.cls-1{fill-rule:evenodd}</style></defs><path d="M7.75 1.5C4.3 1.5 1.5 4.3 1.5 7.75S4.3 14 7.75 14 14 11.2 14 7.75 11.2 1.5 7.75 1.5ZM0 7.75a7.75 7.75 0 1 1 15.5 0 7.75 7.75 0 0 1-15.5 0ZM17.28 14.22a.754.754 0 0 0-1.06 0l-2 2c-.29.29-.29.77 0 1.06l4 4c.29.29.77.29 1.06 0l2-2c.29-.29.29-.77 0-1.06l-4-4Z" class="cls-1"/><path d="M12.22 12.22c.29-.29.77-.29 1.06 0l3 3c.29.29.29.77 0 1.06s-.77.29-1.06 0l-3-3a.754.754 0 0 1 0-1.06Z" class="cls-1"/></svg>